<svg width="16" height="15" viewBox="0 0 16 15" fill="none" xmlns="http://www.w3.org/2000/svg">
<path fill-rule="evenodd" clip-rule="evenodd" d="M1.15164 0.874281C1.37667 0.649315 1.68184 0.522937 2.00004 0.522937C2.31823 0.522937 2.6234 0.649315 2.84844 0.874281L8.00004 6.02588L13.1516 0.874281C13.2623 0.759668 13.3947 0.66825 13.5412 0.605359C13.6876 0.542468 13.845 0.509364 14.0044 0.50798C14.1637 0.506595 14.3217 0.536957 14.4692 0.597294C14.6167 0.657631 14.7506 0.746735 14.8633 0.859406C14.976 0.972077 15.0651 1.10606 15.1254 1.25354C15.1858 1.40101 15.2161 1.55903 15.2147 1.71836C15.2134 1.8777 15.1803 2.03516 15.1174 2.18157C15.0545 2.32797 14.963 2.46038 14.8484 2.57108L9.69684 7.72268L14.8484 12.8743C15.067 13.1006 15.188 13.4037 15.1852 13.7184C15.1825 14.033 15.0563 14.334 14.8338 14.5565C14.6113 14.779 14.3104 14.9052 13.9957 14.9079C13.6811 14.9106 13.378 14.7897 13.1516 14.5711L8.00004 9.41948L2.84844 14.5711C2.62211 14.7897 2.31899 14.9106 2.00436 14.9079C1.68972 14.9052 1.38874 14.779 1.16625 14.5565C0.943765 14.334 0.817562 14.033 0.814828 13.7184C0.812093 13.4037 0.933047 13.1006 1.15164 12.8743L6.30324 7.72268L1.15164 2.57108C0.926672 2.34605 0.800293 2.04088 0.800293 1.72268C0.800293 1.40448 0.926672 1.09931 1.15164 0.874281Z" fill="#1B1D1F"/>
</svg>
